<?xml version="1.0" encoding="utf-8"?>
<!-- Generator: Adobe Illustrator 26.0.1, SVG Export Plug-In . SVG Version: 6.00 Build 0)  -->
<svg version="1.1" id="Vrstva_1" xmlns="http://www.w3.org/2000/svg" xmlns:xlink="http://www.w3.org/1999/xlink" x="0px" y="0px"
	 viewBox="0 0 283.46 132.77" style="enable-background:new 0 0 283.46 132.77;" xml:space="preserve">
<style type="text/css">
	.st0{fill:#5CB7E8;}
</style>
<g>
	<path class="st0" d="M142.33,92.27l0.84-1.47c1.1,0.86,2.96,1.54,4.89,1.54c2.62,0,3.69-0.89,3.69-2.25c0-3.58-8.93-0.76-8.93-6.2
		c0-2.25,1.94-3.93,5.44-3.93c1.78,0,3.72,0.5,4.87,1.28l-0.81,1.49c-1.2-0.84-2.64-1.18-4.06-1.18c-2.49,0-3.59,0.97-3.59,2.28
		c0,3.72,8.92,0.91,8.92,6.2c0,2.38-2.09,3.93-5.68,3.93C145.66,93.97,143.46,93.24,142.33,92.27z"/>
	<path class="st0" d="M172.08,85.86v7.98h-1.86v-7.8c0-2.91-1.52-4.4-4.14-4.4c-2.96,0-4.82,1.83-4.82,4.97v7.22h-1.86V74.42h1.86
		v8.06c1.02-1.6,2.83-2.51,5.16-2.51C169.77,79.97,172.08,81.91,172.08,85.86z"/>
	<path class="st0" d="M191.5,80.07v13.77h-1.78v-2.51c-0.97,1.67-2.75,2.64-4.95,2.64c-3.51,0-5.81-1.96-5.81-5.91v-7.98h1.86v7.8
		c0,2.93,1.52,4.42,4.14,4.42c2.88,0,4.69-1.86,4.69-5v-7.22H191.5z"/>
	<path class="st0" d="M206.23,93c-0.73,0.65-1.83,0.97-2.9,0.97c-2.59,0-4.03-1.47-4.03-4v-8.32h-2.46v-1.57h2.46v-3.01h1.86v3.01
		h4.19v1.57h-4.19v8.22c0,1.62,0.84,2.51,2.38,2.51c0.76,0,1.52-0.23,2.04-0.71L206.23,93z"/>
	<path class="st0" d="M219.57,93c-0.73,0.65-1.83,0.97-2.9,0.97c-2.59,0-4.03-1.47-4.03-4v-8.32h-2.46v-1.57h2.46v-3.01h1.86v3.01
		h4.19v1.57h-4.19v8.22c0,1.62,0.84,2.51,2.38,2.51c0.76,0,1.52-0.23,2.04-0.71L219.57,93z"/>
	<path class="st0" d="M225.03,74.42h1.86v19.42h-1.86V74.42z"/>
	<path class="st0" d="M246.35,87.53h-11.52c0.21,2.88,2.41,4.79,5.42,4.79c1.68,0,3.17-0.6,4.21-1.81l1.05,1.2
		c-1.23,1.47-3.14,2.25-5.31,2.25c-4.29,0-7.22-2.93-7.22-7.02s2.85-6.99,6.73-6.99c3.87,0,6.67,2.85,6.67,6.99
		C246.38,87.11,246.35,87.32,246.35,87.53z M234.83,86.14h9.76c-0.23-2.7-2.2-4.58-4.89-4.58
		C237.03,81.57,235.07,83.45,234.83,86.14z"/>
</g>
<g>
	<path class="st0" d="M122.76,53.82c0-7.23,5.55-12.41,13.02-12.41c4.15,0,7.61,1.51,9.87,4.25l-3.56,3.29
		c-1.61-1.85-3.63-2.81-6.03-2.81c-4.49,0-7.68,3.15-7.68,7.68c0,4.52,3.19,7.68,7.68,7.68c2.4,0,4.42-0.96,6.03-2.84l3.56,3.29
		c-2.26,2.78-5.72,4.28-9.91,4.28C128.31,66.23,122.76,61.05,122.76,53.82z"/>
	<path class="st0" d="M164.67,65.82l-4.63-6.68h-0.27h-4.83v6.68h-5.55V41.82h10.39c6.41,0,10.42,3.32,10.42,8.71
		c0,3.6-1.82,6.24-4.93,7.57l5.38,7.71H164.67z M159.46,46.35h-4.52v8.36h4.52c3.39,0,5.11-1.58,5.11-4.18
		C164.57,47.89,162.85,46.35,159.46,46.35z"/>
	<path class="st0" d="M185.74,57.32v8.5h-5.55v-8.57l-9.29-15.42h5.89l6.41,10.66l6.41-10.66h5.45L185.74,57.32z"/>
	<path class="st0" d="M217.95,50.53c0,5.35-4.01,8.67-10.42,8.67h-4.83v6.61h-5.55V41.82h10.38
		C213.94,41.82,217.95,45.15,217.95,50.53z M212.33,50.53c0-2.64-1.72-4.18-5.11-4.18h-4.53v8.33h4.53
		C210.62,54.68,212.33,53.13,212.33,50.53z"/>
	<path class="st0" d="M226.21,46.35h-7.68v-4.53h20.91v4.53h-7.68v19.47h-5.55V46.35z"/>
	<path class="st0" d="M240.57,53.82c0-7.13,5.55-12.41,13.13-12.41c7.54,0,13.13,5.24,13.13,12.41c0,7.16-5.59,12.41-13.13,12.41
		C246.12,66.23,240.57,60.95,240.57,53.82z M261.2,53.82c0-4.56-3.22-7.68-7.51-7.68c-4.29,0-7.51,3.12-7.51,7.68
		c0,4.56,3.22,7.68,7.51,7.68C257.97,61.5,261.2,58.38,261.2,53.82z"/>
</g>
<path class="st0" d="M61.11,22.45c-24.55,0-44.46,19.91-44.46,44.46c0,20.8,14.28,38.25,33.57,43.11l7.09-12.49h-2.04l0.68-1.09
	v-3.26H52.6v1.63c0,0-0.46,1.9-3.75,1.9c-3.29,0-3.75-1.82-3.75-1.82v-4.85h-5.85l-2.88-2.72l8.72-8.29V56.15v-0.78
	c0-1.04,0.42-3.14,1.1-4.98c0.68-1.84,1.62-3.42,2.66-3.42c2.08,0,3.76,6.32,3.76,8.4v0.78v17.54v0.12h2.6V42.55
	c0-0.13,0-0.26,0.01-0.39c0-0.12,0.01-0.24,0.01-0.36c0.37-7.58,5.85-13.79,5.85-13.79c0.03,0,0.06,0,0.09,0c0.01,0,0.03,0,0.05,0
	c0.01,0,0.03,0,0.04,0c0,0,5.48,6.21,5.85,13.79c0.01,0.12,0.01,0.24,0.01,0.36c0,0.15,0.01,0.3,0.01,0.45v31.2h0.2h2.4V56.15v-0.78
	c0-1.04,0.42-3.14,1.1-4.98c0.68-1.84,1.62-3.42,2.66-3.42c2.08,0,3.76,6.32,3.76,8.4v0.78v22.99l8.61,8.19l-2.4,2.72h-6.21v4.77
	c0,0-0.71,1.68-3.75,1.68s-3.75-1.6-3.75-1.6v-1.71h-3.14v3.31h-0.07l0.65,1.04h-2.29l7.62,12.36
	c19.04-5.03,33.07-22.36,33.07-42.98C105.57,42.36,85.66,22.45,61.11,22.45z"/>
</svg>
